<svg width="60.596" height="64.648" viewBox="0 0 60.596 64.648" xmlns="http://www.w3.org/2000/svg">
<g id="svgGroup" stroke-linecap="round" fill-rule="evenodd" stroke="#b30000" stroke-width="0.4" fill="#fff">
    <path d="M 60.596 47.363 L 57.373 64.502 A 8.462 8.462 0 0 1 55.811 64.648 A 8.708 8.708 0 0 1 55.215 64.625 Q 54.628 64.585 53.814 64.472 A 40.799 40.799 0 0 1 53.027 64.355 Q 51.505 64.115 50.574 64.072 A 8.215 8.215 0 0 0 50.195 64.063 L 0.098 64.063 L 0 61.67 Q 1.514 60.84 2.808 60.474 A 21.829 21.829 0 0 1 4.348 60.1 A 27.832 27.832 0 0 1 5.664 59.863 A 16.889 16.889 0 0 0 6.68 59.656 Q 7.615 59.432 8.216 59.146 A 3.736 3.736 0 0 0 8.521 58.984 A 2.141 2.141 0 0 0 9.128 58.422 Q 9.603 57.793 9.912 56.665 A 10.002 10.002 0 0 0 10.147 55.508 Q 10.4 53.805 10.4 51.025 L 10.4 14.063 Q 10.4 10.254 9.79 8.447 Q 9.36 7.173 8.65 6.446 A 3.227 3.227 0 0 0 8.008 5.933 Q 7.101 5.385 5.257 4.763 A 40.155 40.155 0 0 0 4.102 4.395 Q 3.662 4.248 2.417 3.857 A 28.326 28.326 0 0 1 0 2.979 L 0.098 0.488 L 49.902 0.488 A 11.107 11.107 0 0 0 50.71 0.457 A 14.362 14.362 0 0 0 51.392 0.391 Q 52.134 0.301 52.482 0.252 A 16.145 16.145 0 0 0 52.539 0.244 Q 53.875 0.021 54.968 0.002 A 11.626 11.626 0 0 1 55.176 0 Q 56.111 0 56.843 0.163 A 5.38 5.38 0 0 1 56.982 0.195 L 56.982 15.381 L 54.443 15.479 A 7.595 7.595 0 0 1 53.076 13.623 Q 52.539 12.598 51.855 10.938 Q 51.216 9.339 50.587 8.2 A 12.24 12.24 0 0 0 49.927 7.129 A 5.015 5.015 0 0 0 48.191 5.595 A 6.787 6.787 0 0 0 47.119 5.127 Q 45.029 4.455 42.168 4.154 A 41.31 41.31 0 0 0 40.332 4.004 Q 36.849 3.794 32.429 3.765 A 220.557 220.557 0 0 0 30.957 3.76 A 144.743 144.743 0 0 0 27.308 3.803 Q 23.578 3.897 21.094 4.199 Q 20.898 6.397 20.898 9.229 L 20.898 29.053 L 34.961 29.053 A 40.674 40.674 0 0 0 36.976 29.006 Q 39.354 28.888 40.723 28.467 A 6.946 6.946 0 0 0 42.225 27.814 A 5.259 5.259 0 0 0 43.677 26.563 A 13.541 13.541 0 0 0 44.252 25.775 Q 45.19 24.402 46.582 21.875 L 47.314 20.557 L 50.098 20.557 L 50.098 41.504 L 47.314 41.65 A 22.988 22.988 0 0 0 45.963 38.653 Q 45.133 37.131 44.138 35.965 A 12.434 12.434 0 0 0 43.335 35.107 A 8.115 8.115 0 0 0 39.183 32.981 A 11.759 11.759 0 0 0 36.865 32.764 L 20.898 32.764 L 20.898 49.219 A 35.072 35.072 0 0 0 20.99 51.856 Q 21.183 54.405 21.781 56.045 A 7.598 7.598 0 0 0 22.095 56.787 A 6.923 6.923 0 0 0 23.192 58.429 A 5.297 5.297 0 0 0 25.562 59.937 A 12.364 12.364 0 0 0 27.169 60.31 Q 28.867 60.597 31.237 60.638 A 46.567 46.567 0 0 0 32.031 60.645 L 36.816 60.645 Q 42.969 60.645 47.437 59.253 A 10.67 10.67 0 0 0 53.916 53.83 A 13.477 13.477 0 0 0 54.053 53.564 L 54.736 52.051 Q 55.615 50.147 56.152 49.194 A 9.049 9.049 0 0 1 57.123 47.807 A 10.614 10.614 0 0 1 57.52 47.363 L 60.596 47.363 Z" vector-effect="non-scaling-stroke"/>
</g>
</svg>