<svg width="24" height="24" viewBox="0 0 77.539 64.356" xmlns="http://www.w3.org/2000/svg">
<g id="svgGroup" stroke-linecap="round" fill-rule="evenodd" stroke="#fff" stroke-width="0.4" fill="#b30000">
    <path d="M 12.451 51.904 L 12.451 10.303 A 18.812 18.812 0 0 0 11.363 8.72 Q 10.794 7.983 10.208 7.401 A 10.399 10.399 0 0 0 9.814 7.031 A 13.161 13.161 0 0 0 8.469 5.972 A 9.78 9.78 0 0 0 7.08 5.176 Q 5.713 4.541 3.418 3.76 A 117.494 117.494 0 0 1 2.38 3.409 Q 1.259 3.023 0.459 2.718 A 30.822 30.822 0 0 1 0 2.539 L 0 0 L 17.041 0 L 62.988 47.51 L 62.988 16.797 A 28.296 28.296 0 0 0 62.571 11.841 A 22.919 22.919 0 0 0 61.67 8.35 Q 61.133 6.787 60.205 5.908 A 6.22 6.22 0 0 0 59.052 5.037 A 5.288 5.288 0 0 0 58.203 4.639 A 16.833 16.833 0 0 0 57.46 4.39 Q 56.564 4.111 55.322 3.809 A 5.136 5.136 0 0 0 55.181 3.764 Q 54.835 3.66 53.983 3.433 A 147.809 147.809 0 0 0 53.833 3.394 A 12.206 12.206 0 0 1 52.423 2.93 A 10.124 10.124 0 0 1 51.66 2.588 A 23.426 23.426 0 0 1 51.807 0 L 77.539 0 L 77.539 2.637 A 56.956 56.956 0 0 1 74.707 3.857 Q 72.02 5.035 70.581 5.908 A 9.999 9.999 0 0 0 69.775 6.445 A 4.613 4.613 0 0 0 68.536 7.884 Q 68.193 8.488 67.959 9.247 A 8.92 8.92 0 0 0 67.847 9.644 A 12.95 12.95 0 0 0 67.585 10.993 Q 67.272 13.126 67.236 16.748 A 177.965 177.965 0 0 1 67.23 18.143 Q 67.218 19.735 67.179 21.964 A 801.455 801.455 0 0 1 67.139 24.121 Q 67.091 27.742 67.043 33.107 A 3762.812 3762.812 0 0 0 67.041 33.374 A 1129.34 1129.34 0 0 0 67.011 37.795 Q 67.002 39.747 66.997 41.883 A 1997.976 1997.976 0 0 0 66.992 46.338 A 49.853 49.853 0 0 0 67.029 48.145 Q 67.104 50.209 67.336 53.104 A 228.997 228.997 0 0 0 67.578 55.908 Q 68.066 61.279 68.115 64.014 A 4.83 4.83 0 0 1 67.344 64.222 Q 66.947 64.297 66.484 64.33 A 10.775 10.775 0 0 1 65.723 64.355 Q 64.16 64.355 62.939 64.014 A 169.998 169.998 0 0 0 59.18 59.583 A 220.244 220.244 0 0 0 54.932 54.883 L 16.357 14.307 L 16.357 48.584 A 27.097 27.097 0 0 0 17.188 55.176 A 6.052 6.052 0 0 0 17.59 56.357 Q 17.948 57.124 18.507 57.652 A 3.789 3.789 0 0 0 18.604 57.739 A 6.57 6.57 0 0 0 20.094 58.739 A 5.9 5.9 0 0 0 20.825 59.033 A 15.922 15.922 0 0 0 21.656 59.277 Q 22.596 59.528 23.887 59.779 A 53.024 53.024 0 0 0 24.072 59.814 A 25.798 25.798 0 0 1 25.549 60.085 Q 26.966 60.39 27.881 60.796 A 5.868 5.868 0 0 1 28.271 60.986 A 23.426 23.426 0 0 1 28.125 63.574 L 0.586 63.574 Q 0.511 62.901 0.494 61.713 A 52.75 52.75 0 0 1 0.488 60.938 L 2.734 60.352 A 64.338 64.338 0 0 0 4.561 59.868 Q 6.432 59.341 7.69 58.838 A 7.623 7.623 0 0 0 10.521 56.846 A 9.14 9.14 0 0 0 10.864 56.445 Q 12.012 55.026 12.357 52.714 A 12.83 12.83 0 0 0 12.451 51.904 Z" vector-effect="non-scaling-stroke"/>
</g>
</svg>