<svg width="44.972" height="66.065" viewBox="0 0 44.972 66.065" xmlns="http://www.w3.org/2000/svg">
<g id="svgGroup" stroke-linecap="round" fill-rule="evenodd" stroke="#fff" stroke-width="0.4" fill="#b30000">
    <path d="M 0 45.264 L 2.881 45.166 Q 3.369 45.996 3.687 46.875 Q 3.9 47.466 4.146 48.299 A 49.579 49.579 0 0 1 4.395 49.17 Q 4.59 49.658 4.736 50.293 Q 6.445 55.908 11.23 58.936 A 19.64 19.64 0 0 0 20.651 61.916 A 24.019 24.019 0 0 0 22.168 61.963 A 17.689 17.689 0 0 0 28.442 60.816 A 12.456 12.456 0 0 0 32.131 58.684 A 11.561 11.561 0 0 0 33.472 57.349 A 8.235 8.235 0 0 0 35.426 52.424 A 10.627 10.627 0 0 0 35.449 51.709 A 8.068 8.068 0 0 0 34.06 47.206 A 10.517 10.517 0 0 0 33.423 46.338 A 20.995 20.995 0 0 0 30.005 43.023 A 25.207 25.207 0 0 0 28.394 41.87 A 76.818 76.818 0 0 0 26.295 40.541 Q 23.912 39.081 20.594 37.229 A 261.77 261.77 0 0 0 20.117 36.963 A 185.123 185.123 0 0 1 15.963 34.607 Q 12.53 32.598 10.059 30.908 Q 6.201 28.272 3.516 24.634 A 13.504 13.504 0 0 1 0.83 16.406 A 16.46 16.46 0 0 1 1.378 12.055 A 12.586 12.586 0 0 1 4.028 7.056 A 18.04 18.04 0 0 1 11.008 2.137 A 21.731 21.731 0 0 1 12.231 1.685 A 32.905 32.905 0 0 1 22.759 0 A 36.915 36.915 0 0 1 22.803 0 A 39.805 39.805 0 0 1 32.349 1.172 Q 37.109 2.344 41.406 4.541 L 42.041 18.457 L 39.014 18.457 Q 38.428 17.334 37.646 14.893 L 37.158 13.477 A 14.074 14.074 0 0 0 34.631 8.95 A 12.931 12.931 0 0 0 31.421 6.226 Q 27.344 3.76 22.021 3.76 A 17.152 17.152 0 0 0 17.112 4.496 A 19.541 19.541 0 0 0 16.504 4.688 A 12.066 12.066 0 0 0 13.378 6.238 A 10.754 10.754 0 0 0 11.841 7.544 A 6.54 6.54 0 0 0 9.961 12.217 A 8.472 8.472 0 0 0 9.961 12.305 Q 9.961 14.942 11.914 17.237 A 20.776 20.776 0 0 0 14.877 20.07 A 25.555 25.555 0 0 0 16.748 21.411 A 79.489 79.489 0 0 0 18.763 22.679 Q 21.053 24.077 24.248 25.867 A 275.413 275.413 0 0 0 24.707 26.123 Q 29.07 28.551 32.32 30.593 A 88.308 88.308 0 0 1 35.229 32.495 A 28.208 28.208 0 0 1 42.114 39.16 A 14.599 14.599 0 0 1 44.971 47.998 A 18.27 18.27 0 0 1 44.371 52.787 A 14.174 14.174 0 0 1 41.602 58.179 A 19.308 19.308 0 0 1 33.871 63.784 A 23.129 23.129 0 0 1 32.886 64.16 A 33.479 33.479 0 0 1 21.908 66.063 A 37.691 37.691 0 0 1 21.533 66.065 A 48.998 48.998 0 0 1 15.236 65.64 A 62.689 62.689 0 0 1 9.985 64.722 Q 5.257 63.694 1.916 62.079 A 21.53 21.53 0 0 1 0 61.035 L 0 45.264 Z" vector-effect="non-scaling-stroke"/>
</g>
</svg>