<svg width="103.662" height="64.6" viewBox="0 0 103.662 64.6" xmlns="http://www.w3.org/2000/svg">
<g id="svgGroup" stroke-linecap="round" fill-rule="evenodd" stroke="#b30000" stroke-width="0.4" fill="#fff">
    <path d="M 37.5 46.338 L 50.635 11.279 L 49.463 8.301 A 161.238 161.238 0 0 0 49.094 7.385 Q 48.735 6.504 48.467 5.883 A 35.404 35.404 0 0 0 48.242 5.371 A 2.499 2.499 0 0 0 47.887 5.138 Q 46.977 4.624 44.328 3.599 A 108.224 108.224 0 0 0 44.238 3.564 A 212.21 212.21 0 0 1 42.99 3.061 Q 41.26 2.356 40.381 1.953 Q 39.409 1.508 39.243 1.129 A 0.379 0.379 0 0 1 39.209 0.977 A 0.291 0.291 0 0 1 39.215 0.925 Q 39.239 0.8 39.355 0.488 Q 39.495 0.116 39.546 0.01 A 0.663 0.663 0 0 1 39.551 0 L 70.898 0 A 9.811 9.811 0 0 0 70.927 0.085 Q 70.972 0.216 71.05 0.435 A 74.354 74.354 0 0 0 71.069 0.488 Q 71.189 0.823 71.191 0.97 A 0.366 0.366 0 0 1 71.191 0.977 Q 71.191 1.974 70.363 2.356 A 2.042 2.042 0 0 1 70.142 2.441 Q 69.328 2.706 67.794 2.883 A 33.949 33.949 0 0 1 66.846 2.979 Q 64.355 3.174 63.086 3.638 A 2.019 2.019 0 0 0 62.37 4.069 Q 61.981 4.442 61.865 5.031 A 2.784 2.784 0 0 0 61.816 5.566 A 2.951 2.951 0 0 0 61.902 6.077 Q 62.503 8.752 67.31 23.877 A 3763.265 3763.265 0 0 0 69.534 30.855 Q 73.187 42.273 74.561 46.24 L 75.928 42.09 A 2902.184 2902.184 0 0 0 78.606 34.054 Q 86.565 10.046 87.282 6.183 A 3.453 3.453 0 0 0 87.354 5.615 A 2.399 2.399 0 0 0 87.18 4.681 Q 86.93 4.083 86.317 3.708 A 3.116 3.116 0 0 0 85.889 3.491 A 9.626 9.626 0 0 0 84.847 3.133 Q 83.544 2.76 81.592 2.49 Q 80.42 2.344 79.297 2.1 A 10.95 10.95 0 0 1 78.643 1.937 Q 77.981 1.75 77.546 1.517 A 3.312 3.312 0 0 1 77.539 1.514 L 77.246 0.977 L 77.539 0 L 102.783 0 A 0.587 0.587 0 0 1 102.927 0.02 Q 103.057 0.053 103.218 0.141 A 2.179 2.179 0 0 1 103.271 0.171 Q 103.564 0.342 103.662 0.537 A 0.916 0.916 0 0 1 103.364 1.208 Q 103.083 1.484 102.539 1.685 Q 101.686 2 100.043 2.386 A 62.893 62.893 0 0 1 98.926 2.637 Q 95.345 3.401 93.211 4.281 A 15.831 15.831 0 0 0 93.115 4.321 A 6.059 6.059 0 0 0 91.735 5.113 A 4.366 4.366 0 0 0 90.283 7.08 A 56.573 56.573 0 0 0 89.804 8.493 Q 89.568 9.218 89.324 10.024 A 95.509 95.509 0 0 0 89.16 10.571 A 3902.171 3902.171 0 0 0 88.889 11.488 Q 88.553 12.623 88.371 13.24 A 428.154 428.154 0 0 0 88.33 13.379 A 50.911 50.911 0 0 1 88.19 13.928 Q 88.051 14.457 87.939 14.83 A 11.279 11.279 0 0 1 87.842 15.137 L 73.242 63.525 A 1.168 1.168 0 0 1 72.583 64.258 Q 72.07 64.502 71.191 64.502 Q 70.603 64.502 70.167 64.391 A 2.455 2.455 0 0 1 69.897 64.307 Q 69.385 64.111 69.092 63.525 A 14.726 14.726 0 0 1 68.516 62.238 Q 67.966 60.854 67.416 58.869 A 56.712 56.712 0 0 1 67.236 58.203 L 66.357 55.42 L 52.49 15.039 L 39.844 51.416 A 26.576 26.576 0 0 0 39.603 52.121 Q 39.209 53.32 38.623 55.371 A 175.256 175.256 0 0 1 38.177 56.827 Q 37.737 58.243 37.374 59.309 A 51.596 51.596 0 0 1 37.061 60.205 Q 36.426 61.963 35.645 63.525 A 2.252 2.252 0 0 1 35.42 63.913 Q 35.184 64.236 34.863 64.38 Q 34.489 64.548 33.943 64.588 A 4.865 4.865 0 0 1 33.594 64.6 Q 32.129 64.6 31.104 62.549 A 25.703 25.703 0 0 1 30.334 60.846 Q 29.954 59.922 29.573 58.836 A 56.607 56.607 0 0 1 29.053 57.275 L 28.564 55.713 L 21.875 37.793 A 2379.289 2379.289 0 0 0 10.889 8.496 A 7.493 7.493 0 0 0 10.103 6.985 A 5.538 5.538 0 0 0 8.618 5.493 A 13.254 13.254 0 0 0 7.36 4.753 Q 6.705 4.41 5.926 4.077 A 29.254 29.254 0 0 0 4.639 3.564 Q 3.109 3.001 2.177 2.57 A 13.379 13.379 0 0 1 1.807 2.393 A 6.842 6.842 0 0 1 0.21 1.276 A 7.813 7.813 0 0 1 0 1.074 L 0.342 0 L 31.738 0 Q 31.785 0.141 31.878 0.44 A 58.352 58.352 0 0 1 31.885 0.464 A 3.107 3.107 0 0 1 31.936 0.65 Q 31.982 0.842 31.982 0.977 A 1.529 1.529 0 0 1 31.88 1.552 Q 31.721 1.947 31.315 2.184 A 1.956 1.956 0 0 1 31.03 2.319 A 6.485 6.485 0 0 1 30.381 2.526 Q 29.716 2.704 28.776 2.846 A 26.94 26.94 0 0 1 28.174 2.93 A 22.418 22.418 0 0 0 26.848 3.133 Q 25.451 3.394 24.585 3.784 A 2.085 2.085 0 0 0 23.779 4.398 Q 23.472 4.791 23.38 5.349 A 3.126 3.126 0 0 0 23.34 5.859 A 2.105 2.105 0 0 0 23.422 6.252 Q 23.912 8.085 27.335 17.83 A 1798.185 1798.185 0 0 0 28.589 21.387 Q 32.198 31.592 35.056 39.558 A 2346.226 2346.226 0 0 0 37.5 46.338 Z" vector-effect="non-scaling-stroke"/>
</g>
</svg>