<?xml version="1.0" encoding="UTF-8"?>
<!DOCTYPE svg PUBLIC "-//W3C//DTD SVG 1.1//EN" "http://www.w3.org/Graphics/SVG/1.1/DTD/svg11.dtd">
<svg xmlns="http://www.w3.org/2000/svg" version="1.1" width="75px" height="75px" style="shape-rendering:geometricPrecision; text-rendering:geometricPrecision; image-rendering:optimizeQuality; fill-rule:evenodd; clip-rule:evenodd" xmlns:xlink="http://www.w3.org/1999/xlink">
<g><path style="opacity:1" fill="#eeeeee" d="M -0.5,-0.5 C 7.5,-0.5 15.5,-0.5 23.5,-0.5C 20.9252,0.787393 18.2585,2.12073 15.5,3.5C 14.7025,3.95689 14.3691,4.62356 14.5,5.5C 11.7332,6.05075 9.3999,7.38408 7.5,9.5C 4.19641,12.7939 1.52974,16.4606 -0.5,20.5C -0.5,13.5 -0.5,6.5 -0.5,-0.5 Z"/></g>
<g><path style="opacity:1" fill="#c2c1c1" d="M 23.5,-0.5 C 28.8333,-0.5 34.1667,-0.5 39.5,-0.5C 42.9609,0.929807 46.6276,2.09647 50.5,3C 51.2931,4.08524 51.9598,5.2519 52.5,6.5C 59.0966,9.08591 63.0966,13.7526 64.5,20.5C 63.1667,20.8333 61.8333,21.1667 60.5,21.5C 61.2299,20.2876 62.2299,19.2876 63.5,18.5C 61.0904,13.3732 57.4238,10.3732 52.5,9.5C 51.7401,11.3604 50.7401,13.027 49.5,14.5C 49.1667,14.5 48.8333,14.5 48.5,14.5C 49.9293,12.3222 50.7627,9.98889 51,7.5C 46.8107,5.16048 42.3107,3.82715 37.5,3.5C 36.8333,-0.5 36.1667,-0.5 35.5,3.5C 31.313,3.39469 27.313,4.22802 23.5,6C 22.4831,8.83961 23.1498,11.3396 25.5,13.5C 25.5,14.1667 25.1667,14.5 24.5,14.5C 23.243,12.32 21.743,10.32 20,8.5C 15.564,10.6013 12.064,13.7679 9.5,18C 14.9374,21.5208 14.7707,22.0208 9,19.5C 5.991,24.0286 4.491,29.0286 4.5,34.5C 3.22275,33.3064 2.55608,31.6397 2.5,29.5C 2.67636,26.1182 3.17636,22.7848 4,19.5C 6.53395,14.1295 10.034,9.46281 14.5,5.5C 14.3691,4.62356 14.7025,3.95689 15.5,3.5C 18.2585,2.12073 20.9252,0.787393 23.5,-0.5 Z"/></g>
<g><path style="opacity:1" fill="#ad0101" d="M 37.5,3.5 C 37.5,6.16667 37.5,8.83333 37.5,11.5C 38.5,11.5 39.5,11.5 40.5,11.5C 40.5,12.1667 40.1667,12.5 39.5,12.5C 37.1667,12.5 34.8333,12.5 32.5,12.5C 32.5,12.1667 32.5,11.8333 32.5,11.5C 33.5,11.5 34.5,11.5 35.5,11.5C 35.5,8.83333 35.5,6.16667 35.5,3.5C 36.1667,-0.5 36.8333,-0.5 37.5,3.5 Z"/></g>
<g><path style="opacity:1" fill="#292828" d="M 35.5,3.5 C 35.5,6.16667 35.5,8.83333 35.5,11.5C 34.5,11.5 33.5,11.5 32.5,11.5C 30.1667,12.1667 27.8333,12.8333 25.5,13.5C 23.1498,11.3396 22.4831,8.83961 23.5,6C 27.313,4.22802 31.313,3.39469 35.5,3.5 Z"/></g>
<g><path style="opacity:1" fill="#282727" d="M 37.5,3.5 C 42.3107,3.82715 46.8107,5.16048 51,7.5C 50.7627,9.98889 49.9293,12.3222 48.5,14.5C 45.9933,13.1084 43.3267,12.1084 40.5,11.5C 39.5,11.5 38.5,11.5 37.5,11.5C 37.5,8.83333 37.5,6.16667 37.5,3.5 Z"/></g>
<g><path style="opacity:1" fill="#2b2a2a" d="M 24.5,14.5 C 23.5,14.8333 22.8333,15.5 22.5,16.5C 19.8333,17.1667 18.1667,18.8333 17.5,21.5C 14.0853,25.065 12.4187,29.3983 12.5,34.5C 9.83333,34.5 7.16667,34.5 4.5,34.5C 4.491,29.0286 5.991,24.0286 9,19.5C 14.7707,22.0208 14.9374,21.5208 9.5,18C 12.064,13.7679 15.564,10.6013 20,8.5C 21.743,10.32 23.243,12.32 24.5,14.5 Z"/></g>
<g><path style="opacity:1" fill="#2d2c2c" d="M 60.5,21.5 C 59.391,21.5569 58.391,21.8902 57.5,22.5C 56.8333,22.1667 56.1667,21.8333 55.5,21.5C 54.8333,18.8333 53.1667,17.1667 50.5,16.5C 50.1667,15.8333 49.8333,15.1667 49.5,14.5C 50.7401,13.027 51.7401,11.3604 52.5,9.5C 57.4238,10.3732 61.0904,13.3732 63.5,18.5C 62.2299,19.2876 61.2299,20.2876 60.5,21.5 Z"/></g>
<g><path style="opacity:1" fill="#761210" d="M 32.5,11.5 C 32.5,11.8333 32.5,12.1667 32.5,12.5C 31.791,13.404 30.791,13.7373 29.5,13.5C 27.2872,14.7729 24.9538,15.7729 22.5,16.5C 22.8333,15.5 23.5,14.8333 24.5,14.5C 25.1667,14.5 25.5,14.1667 25.5,13.5C 27.8333,12.8333 30.1667,12.1667 32.5,11.5 Z"/></g>
<g><path style="opacity:1" fill="#731513" d="M 40.5,11.5 C 43.3267,12.1084 45.9933,13.1084 48.5,14.5C 48.8333,14.5 49.1667,14.5 49.5,14.5C 49.8333,15.1667 50.1667,15.8333 50.5,16.5C 46.8505,14.8292 43.1839,13.4959 39.5,12.5C 40.1667,12.5 40.5,12.1667 40.5,11.5 Z"/></g>
<g><path style="opacity:1" fill="#4c2420" d="M 29.5,13.5 C 30.209,14.404 31.209,14.7373 32.5,14.5C 32.8417,15.3382 33.5084,15.6716 34.5,15.5C 32.7078,16.3091 30.7078,16.8091 28.5,17C 26.2657,18.7498 23.9324,20.2498 21.5,21.5C 22.1408,20.5178 22.8075,19.5178 23.5,18.5C 23.3764,17.8933 23.0431,17.56 22.5,17.5C 22.5,17.1667 22.5,16.8333 22.5,16.5C 24.9538,15.7729 27.2872,14.7729 29.5,13.5 Z"/></g>
<g><path style="opacity:1" fill="#a50705" d="M 32.5,14.5 C 35.8499,14.335 39.1832,14.5017 42.5,15C 44.0664,15.6082 45.3998,16.4415 46.5,17.5C 43.7623,17.1489 41.0956,16.4822 38.5,15.5C 38.1667,16 37.8333,16.5 37.5,17C 39.7027,23.2745 41.7027,29.6078 43.5,36C 41.5955,42.5456 39.5955,49.0456 37.5,55.5C 36.8333,55.5 36.1667,55.5 35.5,55.5C 33.6073,48.6531 31.6073,41.8198 29.5,35C 31.1987,28.7372 33.1987,22.5706 35.5,16.5C 35.3764,15.8933 35.0431,15.56 34.5,15.5C 33.5084,15.6716 32.8417,15.3382 32.5,14.5 Z"/></g>
<g><path style="opacity:1" fill="#322727" d="M 32.5,12.5 C 34.8333,12.5 37.1667,12.5 39.5,12.5C 43.1839,13.4959 46.8505,14.8292 50.5,16.5C 51.8333,18.5 53.5,20.1667 55.5,21.5C 61.7847,33.5734 60.1181,44.4067 50.5,54C 46.9469,56.1208 43.2803,57.6208 39.5,58.5C 37.5,58.5 35.5,58.5 33.5,58.5C 29.7394,57.4543 26.0727,56.121 22.5,54.5C 21.1667,52.5 19.5,50.8333 17.5,49.5C 15.2235,44.9635 13.8902,40.1302 13.5,35C 13.9858,30.2185 15.3191,25.7185 17.5,21.5C 19.1667,20.1667 20.8333,18.8333 22.5,17.5C 23.0431,17.56 23.3764,17.8933 23.5,18.5C 22.8075,19.5178 22.1408,20.5178 21.5,21.5C 19.1782,22.8021 17.8449,24.8021 17.5,27.5C 15.9532,29.8066 15.2865,32.4733 15.5,35.5C 15.0795,39.3741 16.0795,42.7074 18.5,45.5C 18.427,47.0269 19.0937,48.0269 20.5,48.5C 22.7528,52.2297 26.0861,54.7297 30.5,56C 34.5,56.6667 38.5,56.6667 42.5,56C 44.0664,55.3918 45.3998,54.5585 46.5,53.5C 50.8333,52.5 53.5,49.8333 54.5,45.5C 55.9663,44.653 56.7996,43.3197 57,41.5C 58.7669,33.6476 57.1002,26.6476 52,20.5C 51.3292,19.7476 50.4959,19.4142 49.5,19.5C 49.0269,18.0937 48.0269,17.427 46.5,17.5C 45.3998,16.4415 44.0664,15.6082 42.5,15C 39.1832,14.5017 35.8499,14.335 32.5,14.5C 31.209,14.7373 30.209,14.404 29.5,13.5C 30.791,13.7373 31.791,13.404 32.5,12.5 Z"/></g>
<g><path style="opacity:1" fill="#791110" d="M 50.5,16.5 C 53.1667,17.1667 54.8333,18.8333 55.5,21.5C 53.5,20.1667 51.8333,18.5 50.5,16.5 Z"/></g>
<g><path style="opacity:1" fill="#7b0c0b" d="M 22.5,16.5 C 22.5,16.8333 22.5,17.1667 22.5,17.5C 20.8333,18.8333 19.1667,20.1667 17.5,21.5C 18.1667,18.8333 19.8333,17.1667 22.5,16.5 Z"/></g>
<g><path style="opacity:1" fill="#841211" d="M 46.5,17.5 C 48.0269,17.427 49.0269,18.0937 49.5,19.5C 47.9731,19.573 46.9731,18.9063 46.5,17.5 Z"/></g>
<g><path style="opacity:1" fill="#2c2a2a" d="M 46.5,17.5 C 46.9731,18.9063 47.9731,19.573 49.5,19.5C 56.5397,27.1022 58.2063,35.7689 54.5,45.5C 52.1667,48.5 49.5,51.1667 46.5,53.5C 43.4606,54.01 40.4606,54.6766 37.5,55.5C 39.5955,49.0456 41.5955,42.5456 43.5,36C 41.7027,29.6078 39.7027,23.2745 37.5,17C 37.8333,16.5 38.1667,16 38.5,15.5C 41.0956,16.4822 43.7623,17.1489 46.5,17.5 Z"/></g>
<g><path style="opacity:1" fill="#7d1512" d="M 49.5,19.5 C 50.4959,19.4142 51.3292,19.7476 52,20.5C 57.1002,26.6476 58.7669,33.6476 57,41.5C 56.7996,43.3197 55.9663,44.653 54.5,45.5C 58.2063,35.7689 56.5397,27.1022 49.5,19.5 Z"/></g>
<g><path style="opacity:1" fill="#2e2d2d" d="M 64.5,20.5 C 67.221,24.6748 68.5544,29.3414 68.5,34.5C 65.8333,34.5 63.1667,34.5 60.5,34.5C 60.5107,30.5357 59.5107,26.869 57.5,23.5C 59.0269,23.573 60.0269,22.9063 60.5,21.5C 61.8333,21.1667 63.1667,20.8333 64.5,20.5 Z"/></g>
<g><path style="opacity:1" fill="#acacac" d="M 60.5,21.5 C 60.0269,22.9063 59.0269,23.573 57.5,23.5C 57.5,23.1667 57.5,22.8333 57.5,22.5C 58.391,21.8902 59.391,21.5569 60.5,21.5 Z"/></g>
<g><path style="opacity:1" fill="#781513" d="M 21.5,21.5 C 20.6597,23.8525 19.3264,25.8525 17.5,27.5C 17.8449,24.8021 19.1782,22.8021 21.5,21.5 Z"/></g>
<g><path style="opacity:1" fill="#cecece" d="M 14.5,5.5 C 10.034,9.46281 6.53395,14.1295 4,19.5C 3.17636,22.7848 2.67636,26.1182 2.5,29.5C 2.55608,31.6397 3.22275,33.3064 4.5,34.5C 7.16667,34.5 9.83333,34.5 12.5,34.5C 12.5,34.8333 12.5,35.1667 12.5,35.5C 9.83333,35.5 7.16667,35.5 4.5,35.5C 4.74073,40.7966 6.07406,45.7966 8.5,50.5C 10.7388,49.2122 13.0721,48.2122 15.5,47.5C 15.5,47.8333 15.5,48.1667 15.5,48.5C 13.1475,49.3403 11.1475,50.6736 9.5,52.5C 11.8333,56.8333 15.1667,60.1667 19.5,62.5C 23.527,56.8979 24.1937,57.2312 21.5,63.5C 25.7399,66.2457 30.4066,67.579 35.5,67.5C 36.1667,71.5 36.8333,71.5 37.5,67.5C 42.8151,67.0698 47.8151,65.5698 52.5,63C 51.281,60.7218 49.9477,58.5551 48.5,56.5C 48.8333,56.5 49.1667,56.5 49.5,56.5C 51.2225,58.2528 52.7225,60.2528 54,62.5C 58.2321,59.936 61.3987,56.436 63.5,52C 61.9661,50.0653 59.9661,48.8987 57.5,48.5C 57.3284,47.5084 57.6618,46.8417 58.5,46.5C 60.5232,48.7 62.8565,49.3667 65.5,48.5C 67.1376,44.3117 68.1376,39.9783 68.5,35.5C 69.3524,40.6641 69.3524,45.9975 68.5,51.5C 66.0582,51.1192 65.3915,51.7859 66.5,53.5C 64.2294,57.2739 61.3961,60.6072 58,63.5C 57.2086,64.745 56.7086,66.0783 56.5,67.5C 37.6343,76.7386 21.4677,73.4052 8,57.5C 5.12073,51.7415 2.28739,46.0748 -0.5,40.5C -0.5,33.8333 -0.5,27.1667 -0.5,20.5C 1.52974,16.4606 4.19641,12.7939 7.5,9.5C 9.3999,7.38408 11.7332,6.05075 14.5,5.5 Z"/></g>
<g><path style="opacity:1" fill="#dcdcdc" d="M 39.5,-0.5 C 42.5,-0.5 45.5,-0.5 48.5,-0.5C 49.4057,0.964857 50.739,1.96486 52.5,2.5C 53.2811,3.72865 53.7811,5.06199 54,6.5C 55.5069,5.46522 57.0069,5.63188 58.5,7C 61.3688,10.2041 64.5354,13.0374 68,15.5C 74.0372,26.9752 75.0372,38.9752 71,51.5C 67.7526,58.2485 62.9193,63.5818 56.5,67.5C 56.7086,66.0783 57.2086,64.745 58,63.5C 61.3961,60.6072 64.2294,57.2739 66.5,53.5C 65.3915,51.7859 66.0582,51.1192 68.5,51.5C 69.3524,45.9975 69.3524,40.6641 68.5,35.5C 65.8333,35.5 63.1667,35.5 60.5,35.5C 60.5,35.1667 60.5,34.8333 60.5,34.5C 63.1667,34.5 65.8333,34.5 68.5,34.5C 68.5544,29.3414 67.221,24.6748 64.5,20.5C 63.0966,13.7526 59.0966,9.08591 52.5,6.5C 51.9598,5.2519 51.2931,4.08524 50.5,3C 46.6276,2.09647 42.9609,0.929807 39.5,-0.5 Z"/></g>
<g><path style="opacity:1" fill="#2b2a2a" d="M 34.5,15.5 C 35.0431,15.56 35.3764,15.8933 35.5,16.5C 33.1987,22.5706 31.1987,28.7372 29.5,35C 31.6073,41.8198 33.6073,48.6531 35.5,55.5C 29.8428,54.5039 24.8428,52.1705 20.5,48.5C 20.573,46.9731 19.9063,45.9731 18.5,45.5C 16.4635,39.5841 16.1302,33.5841 17.5,27.5C 19.3264,25.8525 20.6597,23.8525 21.5,21.5C 23.9324,20.2498 26.2657,18.7498 28.5,17C 30.7078,16.8091 32.7078,16.3091 34.5,15.5 Z"/></g>
<g><path style="opacity:1" fill="#392c2b" d="M 32.5,35.5 C 35.2469,35.1866 37.9135,35.52 40.5,36.5C 38.5629,40.6925 37.0629,45.0259 36,49.5C 34.8286,44.8143 33.6619,40.1477 32.5,35.5 Z"/></g>
<g><path style="opacity:1" fill="#292828" d="M 12.5,35.5 C 12.2795,39.8323 13.2795,43.8323 15.5,47.5C 13.0721,48.2122 10.7388,49.2122 8.5,50.5C 6.07406,45.7966 4.74073,40.7966 4.5,35.5C 7.16667,35.5 9.83333,35.5 12.5,35.5 Z"/></g>
<g><path style="opacity:1" fill="#2c2b2b" d="M 60.5,35.5 C 63.1667,35.5 65.8333,35.5 68.5,35.5C 68.1376,39.9783 67.1376,44.3117 65.5,48.5C 62.8565,49.3667 60.5232,48.7 58.5,46.5C 59.9193,42.9852 60.586,39.3186 60.5,35.5 Z"/></g>
<g><path style="opacity:1" fill="#7b1311" d="M 17.5,21.5 C 15.3191,25.7185 13.9858,30.2185 13.5,35C 13.8902,40.1302 15.2235,44.9635 17.5,49.5C 16.8333,49.1667 16.1667,48.8333 15.5,48.5C 15.5,48.1667 15.5,47.8333 15.5,47.5C 13.2795,43.8323 12.2795,39.8323 12.5,35.5C 12.5,35.1667 12.5,34.8333 12.5,34.5C 12.4187,29.3983 14.0853,25.065 17.5,21.5 Z"/></g>
<g><path style="opacity:1" fill="#821310" d="M 17.5,27.5 C 16.1302,33.5841 16.4635,39.5841 18.5,45.5C 16.0795,42.7074 15.0795,39.3741 15.5,35.5C 15.2865,32.4733 15.9532,29.8066 17.5,27.5 Z"/></g>
<g><path style="opacity:1" fill="#7d1816" d="M 55.5,21.5 C 56.1667,21.8333 56.8333,22.1667 57.5,22.5C 57.5,22.8333 57.5,23.1667 57.5,23.5C 59.5107,26.869 60.5107,30.5357 60.5,34.5C 60.5,34.8333 60.5,35.1667 60.5,35.5C 60.586,39.3186 59.9193,42.9852 58.5,46.5C 57.6618,46.8417 57.3284,47.5084 57.5,48.5C 55.1667,51.5 52.5,54.1667 49.5,56.5C 49.1667,56.5 48.8333,56.5 48.5,56.5C 45.9933,57.8916 43.3267,58.8916 40.5,59.5C 40.5,58.8333 40.1667,58.5 39.5,58.5C 43.2803,57.6208 46.9469,56.1208 50.5,54C 60.1181,44.4067 61.7847,33.5734 55.5,21.5 Z"/></g>
<g><path style="opacity:1" fill="#fbfbfb" d="M -0.5,46.5 C 1.2917,49.5969 2.7917,52.9303 4,56.5C 8.5,59.6667 12.3333,63.5 15.5,68C 20.1993,69.6829 24.5326,71.8496 28.5,74.5C 18.8333,74.5 9.16667,74.5 -0.5,74.5C -0.5,65.1667 -0.5,55.8333 -0.5,46.5 Z"/></g>
<g><path style="opacity:1" fill="#f2f2f2" d="M 48.5,-0.5 C 57.1667,-0.5 65.8333,-0.5 74.5,-0.5C 74.5,24.5 74.5,49.5 74.5,74.5C 59.1667,74.5 43.8333,74.5 28.5,74.5C 24.5326,71.8496 20.1993,69.6829 15.5,68C 12.3333,63.5 8.5,59.6667 4,56.5C 2.7917,52.9303 1.2917,49.5969 -0.5,46.5C -0.5,44.5 -0.5,42.5 -0.5,40.5C 2.28739,46.0748 5.12073,51.7415 8,57.5C 21.4677,73.4052 37.6343,76.7386 56.5,67.5C 62.9193,63.5818 67.7526,58.2485 71,51.5C 75.0372,38.9752 74.0372,26.9752 68,15.5C 64.5354,13.0374 61.3688,10.2041 58.5,7C 57.0069,5.63188 55.5069,5.46522 54,6.5C 53.7811,5.06199 53.2811,3.72865 52.5,2.5C 50.739,1.96486 49.4057,0.964857 48.5,-0.5 Z"/></g>
<g><path style="opacity:1" fill="#2c2b2b" d="M 48.5,56.5 C 49.9477,58.5551 51.281,60.7218 52.5,63C 47.8151,65.5698 42.8151,67.0698 37.5,67.5C 37.5,64.8333 37.5,62.1667 37.5,59.5C 38.5,59.5 39.5,59.5 40.5,59.5C 43.3267,58.8916 45.9933,57.8916 48.5,56.5 Z"/></g>
<g><path style="opacity:1" fill="#af0101" d="M 33.5,59.5 C 33.5,59.1667 33.5,58.8333 33.5,58.5C 35.5,58.5 37.5,58.5 39.5,58.5C 40.1667,58.5 40.5,58.8333 40.5,59.5C 39.5,59.5 38.5,59.5 37.5,59.5C 37.5,62.1667 37.5,64.8333 37.5,67.5C 36.8333,71.5 36.1667,71.5 35.5,67.5C 36.0356,64.3019 35.369,61.6353 33.5,59.5 Z"/></g>
<g><path style="opacity:1" fill="#88130f" d="M 20.5,48.5 C 24.8428,52.1705 29.8428,54.5039 35.5,55.5C 36.1667,55.5 36.8333,55.5 37.5,55.5C 40.4606,54.6766 43.4606,54.01 46.5,53.5C 45.3998,54.5585 44.0664,55.3918 42.5,56C 38.5,56.6667 34.5,56.6667 30.5,56C 26.0861,54.7297 22.7528,52.2297 20.5,48.5 Z"/></g>
<g><path style="opacity:1" fill="#7e1614" d="M 22.5,54.5 C 26.0727,56.121 29.7394,57.4543 33.5,58.5C 33.5,58.8333 33.5,59.1667 33.5,59.5C 29.1476,59.1543 25.4809,57.4876 22.5,54.5 Z"/></g>
<g><path style="opacity:1" fill="#791110" d="M 17.5,49.5 C 19.5,50.8333 21.1667,52.5 22.5,54.5C 19.8333,53.8333 18.1667,52.1667 17.5,49.5 Z"/></g>
<g><path style="opacity:1" fill="#2e2d2d" d="M 15.5,48.5 C 16.1667,48.8333 16.8333,49.1667 17.5,49.5C 18.1667,52.1667 19.8333,53.8333 22.5,54.5C 25.4809,57.4876 29.1476,59.1543 33.5,59.5C 35.369,61.6353 36.0356,64.3019 35.5,67.5C 30.4066,67.579 25.7399,66.2457 21.5,63.5C 24.1937,57.2312 23.527,56.8979 19.5,62.5C 15.1667,60.1667 11.8333,56.8333 9.5,52.5C 11.1475,50.6736 13.1475,49.3403 15.5,48.5 Z"/></g>
<g><path style="opacity:1" fill="#2e2e2e" d="M 57.5,48.5 C 59.9661,48.8987 61.9661,50.0653 63.5,52C 61.3987,56.436 58.2321,59.936 54,62.5C 52.7225,60.2528 51.2225,58.2528 49.5,56.5C 52.5,54.1667 55.1667,51.5 57.5,48.5 Z"/></g>
<g><path style="opacity:1" fill="#771815" d="M 54.5,45.5 C 53.5,49.8333 50.8333,52.5 46.5,53.5C 49.5,51.1667 52.1667,48.5 54.5,45.5 Z"/></g>
<g><path style="opacity:1" fill="#821110" d="M 18.5,45.5 C 19.9063,45.9731 20.573,46.9731 20.5,48.5C 19.0937,48.0269 18.427,47.0269 18.5,45.5 Z"/></g>
</svg>
